# Blender 3.6.2
# www.blender.org
o Torus.001
v 11.500000 0.000000 0.000000
v 11.404509 0.293893 0.000000
v 11.154509 0.475528 0.000000
v 10.845491 0.475528 0.000000
v 10.595491 0.293893 0.000000
v 10.500000 0.000000 0.000000
v 10.595491 -0.293893 0.000000
v 10.845491 -0.475528 0.000000
v 11.154509 -0.475528 0.000000
v 11.404509 -0.293893 0.000000
v 11.108147 0.000000 -2.976418
v 11.015909 0.293893 -2.951703
v 10.774427 0.475528 -2.886999
v 10.475940 0.475528 -2.807019
v 10.234459 0.293893 -2.742314
v 10.142221 0.000000 -2.717599
v 10.234459 -0.293893 -2.742314
v 10.475940 -0.475528 -2.807019
v 10.774427 -0.475528 -2.886999
v 11.015909 -0.293893 -2.951703
v 9.959291 0.000000 -5.750001
v 9.876594 0.293893 -5.702256
v 9.660087 0.475528 -5.577256
v 9.392470 0.475528 -5.422747
v 9.175964 0.293893 -5.297747
v 9.093266 0.000000 -5.250001
v 9.175964 -0.293893 -5.297747
v 9.392470 -0.475528 -5.422747
v 9.660087 -0.475528 -5.577256
v 9.876594 -0.293893 -5.702256
v 8.131727 0.000000 -8.131728
v 8.064204 0.293893 -8.064206
v 7.887428 0.475528 -7.887429
v 7.668920 0.475528 -7.668921
v 7.492143 0.293893 -7.492144
v 7.424621 0.000000 -7.424622
v 7.492143 -0.293893 -7.492144
v 7.668920 -0.475528 -7.668921
v 7.887428 -0.475528 -7.887429
v 8.064204 -0.293893 -8.064206
v 5.750000 0.000000 -9.959292
v 5.702254 0.293893 -9.876595
v 5.577254 0.475528 -9.660089
v 5.422745 0.475528 -9.392471
v 5.297745 0.293893 -9.175965
v 5.250000 0.000000 -9.093267
v 5.297745 -0.293893 -9.175965
v 5.422745 -0.475528 -9.392471
v 5.577254 -0.475528 -9.660089
v 5.702254 -0.293893 -9.876595
v 2.976419 0.000000 -11.108147
v 2.951704 0.293893 -11.015909
v 2.887000 0.475528 -10.774427
v 2.807020 0.475528 -10.475940
v 2.742315 0.293893 -10.234459
v 2.717600 0.000000 -10.142221
v 2.742315 -0.293893 -10.234459
v 2.807020 -0.475528 -10.475940
v 2.887000 -0.475528 -10.774427
v 2.951704 -0.293893 -11.015909
v 0.000001 0.000000 -11.500000
v 0.000001 0.293893 -11.404509
v 0.000001 0.475528 -11.154509
v 0.000001 0.475528 -10.845491
v 0.000001 0.293893 -10.595491
v 0.000001 0.000000 -10.500000
v 0.000001 -0.293893 -10.595491
v 0.000001 -0.475528 -10.845491
v 0.000001 -0.475528 -11.154509
v 0.000001 -0.293893 -11.404509
v -2.976418 0.000000 -11.108148
v -2.951703 0.293893 -11.015910
v -2.886998 0.475528 -10.774428
v -2.807019 0.475528 -10.475941
v -2.742314 0.293893 -10.234459
v -2.717599 0.000000 -10.142221
v -2.742314 -0.293893 -10.234459
v -2.807019 -0.475528 -10.475941
v -2.886998 -0.475528 -10.774428
v -2.951703 -0.293893 -11.015910
v -5.749998 0.000000 -9.959293
v -5.702252 0.293893 -9.876595
v -5.577253 0.475528 -9.660089
v -5.422744 0.475528 -9.392472
v -5.297744 0.293893 -9.175966
v -5.249999 0.000000 -9.093267
v -5.297744 -0.293893 -9.175966
v -5.422744 -0.475528 -9.392472
v -5.577253 -0.475528 -9.660089
v -5.702252 -0.293893 -9.876595
v -8.131730 0.000000 -8.131725
v -8.064207 0.293893 -8.064203
v -7.887431 0.475528 -7.887426
v -7.668922 0.475528 -7.668919
v -7.492146 0.293893 -7.492142
v -7.424623 0.000000 -7.424619
v -7.492146 -0.293893 -7.492142
v -7.668922 -0.475528 -7.668919
v -7.887431 -0.475528 -7.887426
v -8.064207 -0.293893 -8.064203
v -9.959291 0.000000 -5.750003
v -9.876593 0.293893 -5.702257
v -9.660087 0.475528 -5.577257
v -9.392469 0.475528 -5.422748
v -9.175963 0.293893 -5.297748
v -9.093266 0.000000 -5.250002
v -9.175963 -0.293893 -5.297748
v -9.392469 -0.475528 -5.422748
v -9.660087 -0.475528 -5.577257
v -9.876593 -0.293893 -5.702257
v -11.108148 0.000000 -2.976418
v -11.015910 0.293893 -2.951703
v -10.774428 0.475528 -2.886998
v -10.475941 0.475528 -2.807019
v -10.234459 0.293893 -2.742314
v -10.142221 0.000000 -2.717599
v -10.234459 -0.293893 -2.742314
v -10.475941 -0.475528 -2.807019
v -10.774428 -0.475528 -2.886998
v -11.015910 -0.293893 -2.951703
v -11.500000 0.000000 -0.000001
v -11.404509 0.293893 -0.000001
v -11.154509 0.475528 -0.000001
v -10.845491 0.475528 -0.000001
v -10.595491 0.293893 -0.000001
v -10.500000 0.000000 -0.000001
v -10.595491 -0.293893 -0.000001
v -10.845491 -0.475528 -0.000001
v -11.154509 -0.475528 -0.000001
v -11.404509 -0.293893 -0.000001
v -11.108148 0.000000 2.976418
v -11.015910 0.293893 2.951703
v -10.774428 0.475528 2.886998
v -10.475941 0.475528 2.807019
v -10.234459 0.293893 2.742314
v -10.142221 0.000000 2.717599
v -10.234459 -0.293893 2.742314
v -10.475941 -0.475528 2.807019
v -10.774428 -0.475528 2.886998
v -11.015910 -0.293893 2.951703
v -9.959293 0.000000 5.749998
v -9.876595 0.293893 5.702252
v -9.660089 0.475528 5.577252
v -9.392472 0.475528 5.422744
v -9.175966 0.293893 5.297744
v -9.093267 0.000000 5.249998
v -9.175966 -0.293893 5.297744
v -9.392472 -0.475528 5.422744
v -9.660089 -0.475528 5.577252
v -9.876595 -0.293893 5.702252
v -8.131730 0.000000 8.131725
v -8.064207 0.293893 8.064203
v -7.887431 0.475528 7.887426
v -7.668922 0.475528 7.668919
v -7.492146 0.293893 7.492142
v -7.424623 0.000000 7.424619
v -7.492146 -0.293893 7.492142
v -7.668922 -0.475528 7.668919
v -7.887431 -0.475528 7.887426
v -8.064207 -0.293893 8.064203
v -5.749998 0.000000 9.959293
v -5.702252 0.293893 9.876595
v -5.577253 0.475528 9.660089
v -5.422744 0.475528 9.392472
v -5.297744 0.293893 9.175966
v -5.249999 0.000000 9.093267
v -5.297744 -0.293893 9.175966
v -5.422744 -0.475528 9.392472
v -5.577253 -0.475528 9.660089
v -5.702252 -0.293893 9.876595
v -2.976423 0.000000 11.108146
v -2.951708 0.293893 11.015908
v -2.887003 0.475528 10.774427
v -2.807023 0.475528 10.475940
v -2.742318 0.293893 10.234458
v -2.717603 0.000000 10.142220
v -2.742318 -0.293893 10.234458
v -2.807023 -0.475528 10.475940
v -2.887003 -0.475528 10.774427
v -2.951708 -0.293893 11.015908
v 0.000001 0.000000 11.500000
v 0.000001 0.293893 11.404509
v 0.000001 0.475528 11.154509
v 0.000001 0.475528 10.845491
v 0.000001 0.293893 10.595491
v 0.000001 0.000000 10.500000
v 0.000001 -0.293893 10.595491
v 0.000001 -0.475528 10.845491
v 0.000001 -0.475528 11.154509
v 0.000001 -0.293893 11.404509
v 2.976414 0.000000 11.108149
v 2.951699 0.293893 11.015910
v 2.886994 0.475528 10.774429
v 2.807015 0.475528 10.475942
v 2.742310 0.293893 10.234460
v 2.717595 0.000000 10.142222
v 2.742310 -0.293893 10.234460
v 2.807015 -0.475528 10.475942
v 2.886994 -0.475528 10.774429
v 2.951699 -0.293893 11.015910
v 5.750000 0.000000 9.959292
v 5.702254 0.293893 9.876595
v 5.577254 0.475528 9.660089
v 5.422745 0.475528 9.392471
v 5.297745 0.293893 9.175965
v 5.250000 0.000000 9.093267
v 5.297745 -0.293893 9.175965
v 5.422745 -0.475528 9.392471
v 5.577254 -0.475528 9.660089
v 5.702254 -0.293893 9.876595
v 8.131723 0.000000 8.131733
v 8.064201 0.293893 8.064210
v 7.887424 0.475528 7.887433
v 7.668917 0.475528 7.668925
v 7.492140 0.293893 7.492148
v 7.424617 0.000000 7.424625
v 7.492140 -0.293893 7.492148
v 7.668917 -0.475528 7.668925
v 7.887424 -0.475528 7.887433
v 8.064201 -0.293893 8.064210
v 9.959291 0.000000 5.750001
v 9.876594 0.293893 5.702256
v 9.660087 0.475528 5.577256
v 9.392470 0.475528 5.422747
v 9.175964 0.293893 5.297747
v 9.093266 0.000000 5.250001
v 9.175964 -0.293893 5.297747
v 9.392470 -0.475528 5.422747
v 9.660087 -0.475528 5.577256
v 9.876594 -0.293893 5.702256
v 11.108148 0.000000 2.976416
v 11.015910 0.293893 2.951701
v 10.774428 0.475528 2.886996
v 10.475941 0.475528 2.807017
v 10.234459 0.293893 2.742312
v 10.142221 0.000000 2.717597
v 10.234459 -0.293893 2.742312
v 10.475941 -0.475528 2.807017
v 10.774428 -0.475528 2.886996
v 11.015910 -0.293893 2.951701
vn 0.9437 0.3066 -0.1242
vn 0.5860 0.8066 -0.0772
vn -0.0000 1.0000 -0.0000
vn -0.5860 0.8066 0.0772
vn -0.9437 0.3066 0.1242
vn -0.9437 -0.3066 0.1242
vn -0.5860 -0.8066 0.0772
vn -0.0000 -1.0000 -0.0000
vn 0.5860 -0.8066 -0.0772
vn 0.9437 -0.3066 -0.1242
vn 0.8794 0.3066 -0.3642
vn 0.5461 0.8066 -0.2262
vn -0.5461 0.8066 0.2262
vn -0.8794 0.3066 0.3642
vn -0.8794 -0.3066 0.3643
vn -0.5461 -0.8066 0.2262
vn 0.5461 -0.8066 -0.2262
vn 0.8794 -0.3066 -0.3642
vn 0.7551 0.3066 -0.5794
vn 0.4689 0.8066 -0.3598
vn -0.4689 0.8066 0.3598
vn -0.7551 0.3066 0.5794
vn -0.7551 -0.3066 0.5794
vn -0.4689 -0.8066 0.3598
vn 0.4689 -0.8066 -0.3598
vn 0.7551 -0.3066 -0.5794
vn 0.5794 0.3066 -0.7551
vn 0.3598 0.8066 -0.4689
vn -0.3598 0.8066 0.4689
vn -0.5794 0.3066 0.7551
vn -0.5794 -0.3066 0.7551
vn -0.3598 -0.8066 0.4689
vn 0.3598 -0.8066 -0.4689
vn 0.5794 -0.3066 -0.7551
vn 0.3642 0.3066 -0.8794
vn 0.2262 0.8066 -0.5461
vn -0.2262 0.8066 0.5461
vn -0.3643 0.3066 0.8794
vn -0.3642 -0.3066 0.8794
vn -0.2262 -0.8066 0.5461
vn 0.2262 -0.8066 -0.5461
vn 0.3642 -0.3066 -0.8794
vn 0.1242 0.3066 -0.9437
vn 0.0772 0.8066 -0.5860
vn -0.0772 0.8066 0.5860
vn -0.1242 0.3066 0.9437
vn -0.1242 -0.3066 0.9437
vn -0.0772 -0.8066 0.5860
vn 0.0772 -0.8066 -0.5860
vn 0.1242 -0.3066 -0.9437
vn -0.1242 0.3066 -0.9437
vn -0.0772 0.8066 -0.5860
vn 0.0772 0.8066 0.5860
vn 0.1242 0.3066 0.9437
vn 0.1242 -0.3066 0.9437
vn 0.0772 -0.8066 0.5860
vn -0.0772 -0.8066 -0.5860
vn -0.1242 -0.3066 -0.9437
vn -0.3643 0.3066 -0.8794
vn -0.2262 0.8066 -0.5461
vn 0.2262 0.8066 0.5461
vn 0.3643 0.3066 0.8794
vn 0.3642 -0.3066 0.8794
vn 0.2262 -0.8066 0.5461
vn -0.2262 -0.8066 -0.5461
vn -0.3643 -0.3066 -0.8794
vn -0.5794 0.3066 -0.7551
vn -0.3598 0.8066 -0.4689
vn 0.3598 0.8066 0.4689
vn 0.5794 0.3066 0.7551
vn 0.5794 -0.3066 0.7551
vn 0.3598 -0.8066 0.4689
vn -0.3598 -0.8066 -0.4689
vn -0.5794 -0.3066 -0.7551
vn -0.7551 0.3066 -0.5794
vn -0.4689 0.8066 -0.3598
vn 0.4689 0.8066 0.3598
vn 0.7551 0.3066 0.5794
vn 0.7551 -0.3066 0.5794
vn 0.4689 -0.8066 0.3598
vn -0.4689 -0.8066 -0.3598
vn -0.7551 -0.3066 -0.5794
vn -0.8794 0.3066 -0.3643
vn -0.5461 0.8066 -0.2262
vn 0.5461 0.8066 0.2262
vn 0.8794 0.3066 0.3642
vn 0.8794 -0.3066 0.3642
vn 0.5461 -0.8066 0.2262
vn -0.5461 -0.8066 -0.2262
vn -0.8794 -0.3066 -0.3643
vn -0.9437 0.3066 -0.1242
vn -0.5860 0.8066 -0.0772
vn 0.5860 0.8066 0.0772
vn 0.9437 0.3066 0.1242
vn 0.9437 -0.3066 0.1242
vn 0.5860 -0.8066 0.0772
vn -0.5860 -0.8066 -0.0772
vn -0.9437 -0.3066 -0.1242
vn -0.8794 -0.3066 0.3642
vn -0.3642 0.3066 0.8794
vn -0.3643 -0.3066 0.8794
vn 0.3642 0.3066 0.8794
vn -0.3642 0.3066 -0.8794
vn -0.3642 -0.3066 -0.8794
vn 0.8794 0.3066 0.3643
vn -0.8794 0.3066 -0.3642
vn -0.8794 -0.3066 -0.3642
vn 0.8794 -0.3066 0.3643
vn 0.8794 0.3066 -0.3643
vn 0.8794 -0.3066 -0.3643
vn 0.3643 0.3066 -0.8794
vn 0.3643 -0.3066 -0.8794
s 0
f 11//1 2//1 1//1
f 12//2 3//2 2//2
f 13//3 4//3 3//3
f 14//4 5//4 4//4
f 15//5 6//5 5//5
f 16//6 7//6 6//6
f 17//7 8//7 7//7
f 18//8 9//8 8//8
f 9//9 20//9 10//9
f 20//10 1//10 10//10
f 21//11 12//11 11//11
f 22//12 13//12 12//12
f 13//3 24//3 14//3
f 24//13 15//13 14//13
f 25//14 16//14 15//14
f 26//15 17//15 16//15
f 27//16 18//16 17//16
f 28//8 19//8 18//8
f 29//17 20//17 19//17
f 30//18 11//18 20//18
f 31//19 22//19 21//19
f 22//20 33//20 23//20
f 33//3 24//3 23//3
f 24//21 35//21 25//21
f 35//22 26//22 25//22
f 26//23 37//23 27//23
f 37//24 28//24 27//24
f 38//8 29//8 28//8
f 39//25 30//25 29//25
f 30//26 31//26 21//26
f 41//27 32//27 31//27
f 42//28 33//28 32//28
f 43//3 34//3 33//3
f 34//29 45//29 35//29
f 45//30 36//30 35//30
f 46//31 37//31 36//31
f 47//32 38//32 37//32
f 48//8 39//8 38//8
f 39//33 50//33 40//33
f 50//34 31//34 40//34
f 51//35 42//35 41//35
f 52//36 43//36 42//36
f 43//3 54//3 44//3
f 54//37 45//37 44//37
f 55//38 46//38 45//38
f 56//39 47//39 46//39
f 57//40 48//40 47//40
f 48//8 59//8 49//8
f 59//41 50//41 49//41
f 50//42 51//42 41//42
f 61//43 52//43 51//43
f 62//44 53//44 52//44
f 63//3 54//3 53//3
f 64//45 55//45 54//45
f 65//46 56//46 55//46
f 56//47 67//47 57//47
f 67//48 58//48 57//48
f 58//8 69//8 59//8
f 69//49 60//49 59//49
f 70//50 51//50 60//50
f 71//51 62//51 61//51
f 72//52 63//52 62//52
f 63//3 74//3 64//3
f 74//53 65//53 64//53
f 65//54 76//54 66//54
f 76//55 67//55 66//55
f 67//56 78//56 68//56
f 78//8 69//8 68//8
f 79//57 70//57 69//57
f 80//58 61//58 70//58
f 71//59 82//59 72//59
f 82//60 73//60 72//60
f 73//3 84//3 74//3
f 84//61 75//61 74//61
f 85//62 76//62 75//62
f 86//63 77//63 76//63
f 87//64 78//64 77//64
f 88//8 79//8 78//8
f 79//65 90//65 80//65
f 90//66 71//66 80//66
f 91//67 82//67 81//67
f 92//68 83//68 82//68
f 93//3 84//3 83//3
f 84//69 95//69 85//69
f 95//70 86//70 85//70
f 86//71 97//71 87//71
f 97//72 88//72 87//72
f 98//8 89//8 88//8
f 89//73 100//73 90//73
f 100//74 81//74 90//74
f 91//75 102//75 92//75
f 102//76 93//76 92//76
f 103//3 94//3 93//3
f 104//77 95//77 94//77
f 95//78 106//78 96//78
f 106//79 97//79 96//79
f 97//80 108//80 98//80
f 108//8 99//8 98//8
f 99//81 110//81 100//81
f 110//82 91//82 100//82
f 111//83 102//83 101//83
f 112//84 103//84 102//84
f 113//3 104//3 103//3
f 114//85 105//85 104//85
f 115//86 106//86 105//86
f 116//87 107//87 106//87
f 107//88 118//88 108//88
f 118//8 109//8 108//8
f 119//89 110//89 109//89
f 120//90 101//90 110//90
f 121//91 112//91 111//91
f 122//92 113//92 112//92
f 123//3 114//3 113//3
f 114//93 125//93 115//93
f 115//94 126//94 116//94
f 126//95 117//95 116//95
f 127//96 118//96 117//96
f 128//8 119//8 118//8
f 129//97 120//97 119//97
f 130//98 111//98 120//98
f 131//5 122//5 121//5
f 132//4 123//4 122//4
f 133//3 124//3 123//3
f 134//2 125//2 124//2
f 135//1 126//1 125//1
f 136//10 127//10 126//10
f 137//9 128//9 127//9
f 138//8 129//8 128//8
f 139//7 130//7 129//7
f 140//6 121//6 130//6
f 131//14 142//14 132//14
f 132//13 143//13 133//13
f 143//3 134//3 133//3
f 144//12 135//12 134//12
f 145//11 136//11 135//11
f 136//18 147//18 137//18
f 147//17 138//17 137//17
f 148//8 139//8 138//8
f 149//16 140//16 139//16
f 150//99 131//99 140//99
f 151//22 142//22 141//22
f 142//21 153//21 143//21
f 143//3 154//3 144//3
f 154//20 145//20 144//20
f 155//19 146//19 145//19
f 146//26 157//26 147//26
f 157//25 148//25 147//25
f 148//8 159//8 149//8
f 149//24 160//24 150//24
f 150//23 151//23 141//23
f 161//30 152//30 151//30
f 152//29 163//29 153//29
f 163//3 154//3 153//3
f 164//28 155//28 154//28
f 155//27 166//27 156//27
f 166//34 157//34 156//34
f 167//33 158//33 157//33
f 168//8 159//8 158//8
f 169//32 160//32 159//32
f 160//31 161//31 151//31
f 171//100 162//100 161//100
f 172//37 163//37 162//37
f 163//3 174//3 164//3
f 174//36 165//36 164//36
f 175//35 166//35 165//35
f 176//42 167//42 166//42
f 177//41 168//41 167//41
f 178//8 169//8 168//8
f 179//40 170//40 169//40
f 180//101 161//101 170//101
f 181//46 172//46 171//46
f 182//45 173//45 172//45
f 183//3 174//3 173//3
f 174//44 185//44 175//44
f 175//43 186//43 176//43
f 186//50 177//50 176//50
f 187//49 178//49 177//49
f 188//8 179//8 178//8
f 179//48 190//48 180//48
f 190//47 171//47 180//47
f 191//54 182//54 181//54
f 192//53 183//53 182//53
f 193//3 184//3 183//3
f 194//52 185//52 184//52
f 195//51 186//51 185//51
f 196//58 187//58 186//58
f 197//57 188//57 187//57
f 198//8 189//8 188//8
f 199//56 190//56 189//56
f 200//55 181//55 190//55
f 201//102 192//102 191//102
f 192//61 203//61 193//61
f 193//3 204//3 194//3
f 194//60 205//60 195//60
f 205//103 196//103 195//103
f 196//104 207//104 197//104
f 207//65 198//65 197//65
f 208//8 199//8 198//8
f 209//64 200//64 199//64
f 200//63 201//63 191//63
f 211//70 202//70 201//70
f 202//69 213//69 203//69
f 213//3 204//3 203//3
f 214//68 205//68 204//68
f 215//67 206//67 205//67
f 206//74 217//74 207//74
f 217//73 208//73 207//73
f 218//8 209//8 208//8
f 219//72 210//72 209//72
f 210//71 211//71 201//71
f 221//78 212//78 211//78
f 222//77 213//77 212//77
f 223//3 214//3 213//3
f 224//76 215//76 214//76
f 225//75 216//75 215//75
f 226//82 217//82 216//82
f 227//81 218//81 217//81
f 228//8 219//8 218//8
f 229//80 220//80 219//80
f 220//79 221//79 211//79
f 231//105 222//105 221//105
f 222//85 233//85 223//85
f 233//3 224//3 223//3
f 234//84 225//84 224//84
f 225//106 236//106 226//106
f 236//107 227//107 226//107
f 227//89 238//89 228//89
f 238//8 229//8 228//8
f 239//88 230//88 229//88
f 240//108 221//108 230//108
f 1//94 232//94 231//94
f 2//93 233//93 232//93
f 233//3 4//3 234//3
f 4//92 235//92 234//92
f 5//91 236//91 235//91
f 6//98 237//98 236//98
f 7//97 238//97 237//97
f 8//8 239//8 238//8
f 9//96 240//96 239//96
f 10//95 231//95 240//95
f 11//1 12//1 2//1
f 12//2 13//2 3//2
f 13//3 14//3 4//3
f 14//4 15//4 5//4
f 15//5 16//5 6//5
f 16//6 17//6 7//6
f 17//7 18//7 8//7
f 18//8 19//8 9//8
f 9//9 19//9 20//9
f 20//10 11//10 1//10
f 21//109 22//109 12//109
f 22//12 23//12 13//12
f 13//3 23//3 24//3
f 24//13 25//13 15//13
f 25//14 26//14 16//14
f 26//99 27//99 17//99
f 27//16 28//16 18//16
f 28//8 29//8 19//8
f 29//17 30//17 20//17
f 30//110 21//110 11//110
f 31//19 32//19 22//19
f 22//20 32//20 33//20
f 33//3 34//3 24//3
f 24//21 34//21 35//21
f 35//22 36//22 26//22
f 26//23 36//23 37//23
f 37//24 38//24 28//24
f 38//8 39//8 29//8
f 39//25 40//25 30//25
f 30//26 40//26 31//26
f 41//27 42//27 32//27
f 42//28 43//28 33//28
f 43//3 44//3 34//3
f 34//29 44//29 45//29
f 45//30 46//30 36//30
f 46//31 47//31 37//31
f 47//32 48//32 38//32
f 48//8 49//8 39//8
f 39//33 49//33 50//33
f 50//34 41//34 31//34
f 51//111 52//111 42//111
f 52//36 53//36 43//36
f 43//3 53//3 54//3
f 54//37 55//37 45//37
f 55//38 56//38 46//38
f 56//101 57//101 47//101
f 57//40 58//40 48//40
f 48//8 58//8 59//8
f 59//41 60//41 50//41
f 50//112 60//112 51//112
f 61//43 62//43 52//43
f 62//44 63//44 53//44
f 63//3 64//3 54//3
f 64//45 65//45 55//45
f 65//46 66//46 56//46
f 56//47 66//47 67//47
f 67//48 68//48 58//48
f 58//8 68//8 69//8
f 69//49 70//49 60//49
f 70//50 61//50 51//50
f 71//51 72//51 62//51
f 72//52 73//52 63//52
f 63//3 73//3 74//3
f 74//53 75//53 65//53
f 65//54 75//54 76//54
f 76//55 77//55 67//55
f 67//56 77//56 78//56
f 78//8 79//8 69//8
f 79//57 80//57 70//57
f 80//58 71//58 61//58
f 71//103 81//103 82//103
f 82//60 83//60 73//60
f 73//3 83//3 84//3
f 84//61 85//61 75//61
f 85//102 86//102 76//102
f 86//63 87//63 77//63
f 87//64 88//64 78//64
f 88//8 89//8 79//8
f 79//65 89//65 90//65
f 90//104 81//104 71//104
f 91//67 92//67 82//67
f 92//68 93//68 83//68
f 93//3 94//3 84//3
f 84//69 94//69 95//69
f 95//70 96//70 86//70
f 86//71 96//71 97//71
f 97//72 98//72 88//72
f 98//8 99//8 89//8
f 89//73 99//73 100//73
f 100//74 91//74 81//74
f 91//75 101//75 102//75
f 102//76 103//76 93//76
f 103//3 104//3 94//3
f 104//77 105//77 95//77
f 95//78 105//78 106//78
f 106//79 107//79 97//79
f 97//80 107//80 108//80
f 108//8 109//8 99//8
f 99//81 109//81 110//81
f 110//82 101//82 91//82
f 111//106 112//106 102//106
f 112//84 113//84 103//84
f 113//3 114//3 104//3
f 114//85 115//85 105//85
f 115//105 116//105 106//105
f 116//108 117//108 107//108
f 107//88 117//88 118//88
f 118//8 119//8 109//8
f 119//89 120//89 110//89
f 120//107 111//107 101//107
f 121//91 122//91 112//91
f 122//92 123//92 113//92
f 123//3 124//3 114//3
f 114//93 124//93 125//93
f 115//94 125//94 126//94
f 126//95 127//95 117//95
f 127//96 128//96 118//96
f 128//8 129//8 119//8
f 129//97 130//97 120//97
f 130//98 121//98 111//98
f 131//5 132//5 122//5
f 132//4 133//4 123//4
f 133//3 134//3 124//3
f 134//2 135//2 125//2
f 135//1 136//1 126//1
f 136//10 137//10 127//10
f 137//9 138//9 128//9
f 138//8 139//8 129//8
f 139//7 140//7 130//7
f 140//6 131//6 121//6
f 131//14 141//14 142//14
f 132//13 142//13 143//13
f 143//3 144//3 134//3
f 144//12 145//12 135//12
f 145//11 146//11 136//11
f 136//18 146//18 147//18
f 147//17 148//17 138//17
f 148//8 149//8 139//8
f 149//16 150//16 140//16
f 150//99 141//99 131//99
f 151//22 152//22 142//22
f 142//21 152//21 153//21
f 143//3 153//3 154//3
f 154//20 155//20 145//20
f 155//19 156//19 146//19
f 146//26 156//26 157//26
f 157//25 158//25 148//25
f 148//8 158//8 159//8
f 149//24 159//24 160//24
f 150//23 160//23 151//23
f 161//30 162//30 152//30
f 152//29 162//29 163//29
f 163//3 164//3 154//3
f 164//28 165//28 155//28
f 155//27 165//27 166//27
f 166//34 167//34 157//34
f 167//33 168//33 158//33
f 168//8 169//8 159//8
f 169//32 170//32 160//32
f 160//31 170//31 161//31
f 171//38 172//38 162//38
f 172//37 173//37 163//37
f 163//3 173//3 174//3
f 174//36 175//36 165//36
f 175//111 176//111 166//111
f 176//112 177//112 167//112
f 177//41 178//41 168//41
f 178//8 179//8 169//8
f 179//40 180//40 170//40
f 180//39 171//39 161//39
f 181//46 182//46 172//46
f 182//45 183//45 173//45
f 183//3 184//3 174//3
f 174//44 184//44 185//44
f 175//43 185//43 186//43
f 186//50 187//50 177//50
f 187//49 188//49 178//49
f 188//8 189//8 179//8
f 179//48 189//48 190//48
f 190//47 181//47 171//47
f 191//54 192//54 182//54
f 192//53 193//53 183//53
f 193//3 194//3 184//3
f 194//52 195//52 185//52
f 195//51 196//51 186//51
f 196//58 197//58 187//58
f 197//57 198//57 188//57
f 198//8 199//8 189//8
f 199//56 200//56 190//56
f 200//55 191//55 181//55
f 201//102 202//102 192//102
f 192//61 202//61 203//61
f 193//3 203//3 204//3
f 194//60 204//60 205//60
f 205//103 206//103 196//103
f 196//104 206//104 207//104
f 207//65 208//65 198//65
f 208//8 209//8 199//8
f 209//64 210//64 200//64
f 200//63 210//63 201//63
f 211//70 212//70 202//70
f 202//69 212//69 213//69
f 213//3 214//3 204//3
f 214//68 215//68 205//68
f 215//67 216//67 206//67
f 206//74 216//74 217//74
f 217//73 218//73 208//73
f 218//8 219//8 209//8
f 219//72 220//72 210//72
f 210//71 220//71 211//71
f 221//78 222//78 212//78
f 222//77 223//77 213//77
f 223//3 224//3 214//3
f 224//76 225//76 215//76
f 225//75 226//75 216//75
f 226//82 227//82 217//82
f 227//81 228//81 218//81
f 228//8 229//8 219//8
f 229//80 230//80 220//80
f 220//79 230//79 221//79
f 231//86 232//86 222//86
f 222//85 232//85 233//85
f 233//3 234//3 224//3
f 234//84 235//84 225//84
f 225//106 235//106 236//106
f 236//107 237//107 227//107
f 227//89 237//89 238//89
f 238//8 239//8 229//8
f 239//88 240//88 230//88
f 240//87 231//87 221//87
f 1//94 2//94 232//94
f 2//93 3//93 233//93
f 233//3 3//3 4//3
f 4//92 5//92 235//92
f 5//91 6//91 236//91
f 6//98 7//98 237//98
f 7//97 8//97 238//97
f 8//8 9//8 239//8
f 9//96 10//96 240//96
f 10//95 1//95 231//95
