# Blender 4.0.2
# www.blender.org
o Cube
v 0.000000 -0.500000 -0.500000
v 0.000000 -0.500000 0.500000
v 0.000000 0.500000 -0.500000
v 0.000000 0.500000 0.500000
v 11.228203 -0.499999 -0.500003
v 11.228203 0.500000 0.499997
v 11.228203 -0.499999 0.499997
v 11.228203 0.500000 -0.500003
v 16.050255 -0.125910 -0.041973
v 16.050255 -0.125910 0.041968
v 11.228203 -1.500000 -0.500003
v 11.228203 -1.500000 0.499997
v 11.228203 0.500000 1.500000
v 16.050255 0.041971 0.125908
v 16.050255 -0.041970 0.125908
v 11.228203 -0.499999 1.500000
v 11.228203 1.500000 0.499997
v 16.050255 0.125912 0.041968
v 16.050255 0.125912 -0.041973
v 11.228203 1.500000 -0.500003
v 16.050255 0.041971 -0.125914
v 16.050255 -0.041970 -0.125914
v 11.228203 -0.499999 -1.500000
v 11.228203 0.500000 -1.500000
vn -1.0000 -0.0000 -0.0000
vn -0.0000 -0.0000 -1.0000
vn -0.0000 -1.0000 -0.0000
vn -0.0000 1.0000 -0.0000
vn -0.0000 -0.0000 1.0000
vn 0.2741 -0.9617 -0.0000
vn 0.2741 -0.0000 0.9617
vn 0.2740 0.9617 -0.0000
vn 0.2740 -0.0000 -0.9617
vn 0.2595 0.6829 -0.6829
vn 0.2595 -0.6829 -0.6829
vn 0.2595 -0.6829 0.6829
vn 0.2595 0.6829 0.6829
vn 1.0000 -0.0000 -0.0000
s 0
f 1//1 4//1 3//1
f 8//1 23//1 5//1
f 8//2 1//2 3//2
f 5//3 2//3 1//3
f 6//4 3//4 4//4
f 7//5 4//5 2//5
f 9//6 12//6 11//6
f 11//1 5//1 23//1
f 5//1 12//1 7//1
f 15//7 13//7 16//7
f 12//1 16//1 7//1
f 7//1 13//1 6//1
f 18//8 20//8 17//8
f 6//1 20//1 8//1
f 21//9 23//9 24//9
f 24//10 19//10 21//10
f 1//1 2//1 4//1
f 8//1 24//1 23//1
f 8//2 5//2 1//2
f 5//3 7//3 2//3
f 6//4 8//4 3//4
f 7//5 6//5 4//5
f 9//6 10//6 12//6
f 23//11 9//11 11//11
f 5//1 11//1 12//1
f 15//7 14//7 13//7
f 12//12 15//12 16//12
f 7//1 16//1 13//1
f 18//8 19//8 20//8
f 6//1 17//1 20//1
f 21//9 22//9 23//9
f 24//1 8//1 20//1
f 17//13 14//13 18//13
f 13//1 17//1 6//1
f 19//14 14//14 10//14
f 24//10 20//10 19//10
f 23//11 22//11 9//11
f 12//12 10//12 15//12
f 17//13 13//13 14//13
f 10//14 9//14 22//14
f 22//14 21//14 19//14
f 19//14 18//14 14//14
f 14//14 15//14 10//14
f 10//14 22//14 19//14
